<svg xmlns="http://www.w3.org/2000/svg" xmlns:xlink="http://www.w3.org/1999/xlink" width="500" zoomAndPan="magnify" viewBox="0 0 375 374.999991" height="500" preserveAspectRatio="xMidYMid meet" version="1.0"><defs><g/><clipPath id="e1ccd4bf4e"><path d="M 75 10 L 114 10 L 114 84 L 75 84 Z M 75 10 " clip-rule="nonzero"/></clipPath><clipPath id="6f2e11020c"><path d="M 7.753906 37.335938 L 232.789062 -39.796875 L 331.160156 247.207031 L 106.125 324.339844 Z M 7.753906 37.335938 " clip-rule="nonzero"/></clipPath><clipPath id="e98e15d165"><path d="M 7.753906 37.335938 L 232.789062 -39.796875 L 331.160156 247.207031 L 106.125 324.339844 Z M 7.753906 37.335938 " clip-rule="nonzero"/></clipPath><clipPath id="e8d825c9cb"><path d="M 102 84 L 293 84 L 293 259 L 102 259 Z M 102 84 " clip-rule="nonzero"/></clipPath><clipPath id="10312e6331"><path d="M 7.753906 37.335938 L 232.789062 -39.796875 L 331.160156 247.207031 L 106.125 324.339844 Z M 7.753906 37.335938 " clip-rule="nonzero"/></clipPath><clipPath id="2b4ee79db6"><path d="M 7.753906 37.335938 L 232.789062 -39.796875 L 331.160156 247.207031 L 106.125 324.339844 Z M 7.753906 37.335938 " clip-rule="nonzero"/></clipPath><clipPath id="7612ec5e9e"><path d="M 68 46 L 278 46 L 278 285 L 68 285 Z M 68 46 " clip-rule="nonzero"/></clipPath><clipPath id="7da12b836f"><path d="M 7.753906 37.335938 L 232.789062 -39.796875 L 331.160156 247.207031 L 106.125 324.339844 Z M 7.753906 37.335938 " clip-rule="nonzero"/></clipPath><clipPath id="d7eb54afca"><path d="M 7.753906 37.335938 L 232.789062 -39.796875 L 331.160156 247.207031 L 106.125 324.339844 Z M 7.753906 37.335938 " clip-rule="nonzero"/></clipPath><clipPath id="b1420569d3"><path d="M 210 155 L 225 155 L 225 170 L 210 170 Z M 210 155 " clip-rule="nonzero"/></clipPath><clipPath id="68f22c1e8e"><path d="M 210.457031 155.171875 L 225.109375 155.476562 L 224.824219 169.261719 L 210.171875 168.960938 Z M 210.457031 155.171875 " clip-rule="nonzero"/></clipPath><clipPath id="3698f328e9"><path d="M 209.378906 155.148438 L 224.890625 155.46875 L 224.570312 170.980469 L 209.058594 170.660156 Z M 209.378906 155.148438 " clip-rule="nonzero"/></clipPath></defs><g clip-path="url(#e1ccd4bf4e)"><g clip-path="url(#6f2e11020c)"><g clip-path="url(#e98e15d165)"><path fill="#40b93c" d="M 92.433594 35.644531 C 92.433594 35.644531 100.019531 63.820312 92.289062 80.476562 C 72.402344 70.523438 73.066406 45.648438 78.292969 28.292969 C 81.003906 19.289062 86.207031 10.4375 86.207031 10.4375 C 86.207031 10.4375 137.75 57.808594 100.402344 83.253906 C 100.402344 83.253906 107.84375 61.390625 92.433594 35.644531 " fill-opacity="1" fill-rule="nonzero"/></g></g></g><g clip-path="url(#e8d825c9cb)"><g clip-path="url(#10312e6331)"><g clip-path="url(#2b4ee79db6)"><path fill="#ffffff" d="M 276.824219 118.390625 C 296.996094 164.03125 276.351562 217.378906 230.71875 237.558594 C 185.082031 257.730469 131.726562 237.089844 111.554688 191.449219 C 105.472656 177.683594 103.105469 163.21875 104.007812 149.175781 C 101.410156 166.390625 103.511719 184.523438 111.070312 201.625 C 132.261719 249.5625 188.304688 271.246094 236.242188 250.054688 C 284.183594 228.863281 305.863281 172.820312 284.671875 124.886719 C 277.113281 107.78125 265.113281 94.023438 250.636719 84.363281 C 261.628906 93.140625 270.738281 104.628906 276.824219 118.390625 " fill-opacity="1" fill-rule="nonzero"/></g></g></g><g clip-path="url(#7612ec5e9e)"><g clip-path="url(#7da12b836f)"><g clip-path="url(#d7eb54afca)"><path fill="#40b93c" d="M 95.355469 215.933594 C 68.460938 163.492188 89.164062 99.171875 141.609375 72.273438 C 150.183594 67.875 173.160156 57.632812 195.9375 65.824219 C 165.320312 63.949219 134.761719 84.589844 129.082031 88.789062 C 144.453125 111.882812 182.109375 100.734375 203.046875 92.191406 C 228.277344 81.898438 242.609375 87.113281 242.609375 87.113281 C 242.609375 87.113281 224.132812 49.734375 181.546875 46.410156 C 144.035156 43.476562 129.574219 72.398438 129.574219 72.398438 C 74.488281 100.652344 52.738281 168.214844 80.992188 223.300781 C 109.246094 278.390625 176.808594 300.144531 231.894531 271.886719 C 251.550781 261.808594 266.953125 246.722656 277.363281 228.992188 C 267.757812 242.558594 254.832031 254.078125 239.015625 262.191406 C 186.570312 289.085938 122.257812 268.378906 95.355469 215.933594 " fill-opacity="1" fill-rule="nonzero"/></g></g></g><g fill="#055b49" fill-opacity="1"><g transform="translate(129.74539, 197.181182)"><g><path d="M 26.25 0 L 24 -7.203125 L 11.09375 -7.203125 L 8.671875 0 L 0.96875 0 L 13.4375 -34.953125 L 21.859375 -34.953125 L 34.171875 0 Z M 21.953125 -13.25 L 17.625 -27.0625 L 17.53125 -27.0625 L 13.046875 -13.25 Z M 21.953125 -13.25 "/></g></g></g><g fill="#055b49" fill-opacity="1"><g transform="translate(163.139389, 197.181182)"><g><path d="M 20.296875 -22.0625 L 20.40625 -22.0625 L 20.40625 -25.90625 L 26.921875 -25.90625 L 26.921875 -0.390625 C 26.921875 3.628906 25.75 6.457031 23.40625 8.09375 C 21.070312 9.738281 17.894531 10.5625 13.875 10.5625 C 10.625 10.5625 7.941406 9.851562 5.828125 8.4375 C 3.722656 7.03125 2.625 5.144531 2.53125 2.78125 L 9.9375 2.78125 C 10.125 3.75 10.59375 4.425781 11.34375 4.8125 C 12.09375 5.207031 13.195312 5.40625 14.65625 5.40625 C 16.539062 5.40625 17.921875 4.941406 18.796875 4.015625 C 19.671875 3.085938 20.109375 1.632812 20.109375 -0.34375 L 20.109375 -3.65625 L 20.015625 -3.75 C 19.140625 -2.320312 18.171875 -1.316406 17.109375 -0.734375 C 16.054688 -0.148438 14.71875 0.140625 13.09375 0.140625 C 10.851562 0.140625 8.890625 -0.390625 7.203125 -1.453125 C 5.515625 -2.523438 4.21875 -4.066406 3.3125 -6.078125 C 2.40625 -8.097656 1.953125 -10.488281 1.953125 -13.25 C 1.953125 -15.96875 2.40625 -18.332031 3.3125 -20.34375 C 4.21875 -22.363281 5.484375 -23.90625 7.109375 -24.96875 C 8.734375 -26.039062 10.597656 -26.578125 12.703125 -26.578125 C 14.523438 -26.578125 16.078125 -26.1875 17.359375 -25.40625 C 18.640625 -24.632812 19.617188 -23.519531 20.296875 -22.0625 Z M 14.359375 -5.59375 C 16.242188 -5.59375 17.679688 -6.242188 18.671875 -7.546875 C 19.660156 -8.847656 20.15625 -10.695312 20.15625 -13.09375 C 20.15625 -15.300781 19.617188 -17.117188 18.546875 -18.546875 C 17.472656 -19.972656 16.046875 -20.6875 14.265625 -20.6875 C 12.609375 -20.6875 11.304688 -19.988281 10.359375 -18.59375 C 9.421875 -17.195312 8.953125 -15.285156 8.953125 -12.859375 C 8.953125 -10.617188 9.4375 -8.847656 10.40625 -7.546875 C 11.382812 -6.242188 12.703125 -5.59375 14.359375 -5.59375 Z M 14.359375 -5.59375 "/></g></g></g><g fill="#055b49" fill-opacity="1"><g transform="translate(191.129933, 197.181182)"><g><path d="M 18.15625 -26.484375 L 18.15625 -19.578125 C 17.632812 -19.640625 17.019531 -19.671875 16.3125 -19.671875 C 12.0625 -19.671875 9.9375 -17.65625 9.9375 -13.625 L 9.9375 0 L 3.109375 0 L 3.109375 -25.90625 L 9.640625 -25.90625 L 9.640625 -21.421875 L 9.734375 -21.421875 C 10.710938 -23.335938 11.753906 -24.675781 12.859375 -25.4375 C 13.960938 -26.195312 15.289062 -26.578125 16.84375 -26.578125 C 17.007812 -26.578125 17.445312 -26.546875 18.15625 -26.484375 Z M 18.15625 -26.484375 "/></g></g></g><g fill="#055b49" fill-opacity="1"><g transform="translate(208.313593, 197.181182)"><g><path d="M 3.359375 -28.96875 L 3.359375 -35.296875 L 10.171875 -35.296875 L 10.171875 -28.96875 Z M 3.359375 0 L 3.359375 -25.90625 L 10.171875 -25.90625 L 10.171875 0 Z M 3.359375 0 "/></g></g></g><g fill="#055b49" fill-opacity="1"><g transform="translate(220.093811, 197.181182)"><g/></g></g><g fill="#055b49" fill-opacity="1"><g transform="translate(231.874029, 197.181182)"><g><path d="M 14.21875 -20.84375 C 12.394531 -20.84375 11.015625 -20.160156 10.078125 -18.796875 C 9.140625 -17.429688 8.671875 -15.484375 8.671875 -12.953125 C 8.671875 -9.992188 9.140625 -7.914062 10.078125 -6.71875 C 11.015625 -5.519531 12.296875 -4.921875 13.921875 -4.921875 C 15.191406 -4.921875 16.25 -5.347656 17.09375 -6.203125 C 17.9375 -7.066406 18.421875 -8.148438 18.546875 -9.453125 L 25.46875 -9.453125 C 25.039062 -6.460938 23.820312 -4.023438 21.8125 -2.140625 C 19.800781 -0.253906 17.070312 0.6875 13.625 0.6875 C 9.738281 0.6875 6.769531 -0.472656 4.71875 -2.796875 C 2.675781 -5.117188 1.65625 -8.257812 1.65625 -12.21875 C 1.65625 -16.863281 2.722656 -20.414062 4.859375 -22.875 C 7.003906 -25.34375 10.078125 -26.578125 14.078125 -26.578125 C 16.148438 -26.578125 18.03125 -26.1875 19.71875 -25.40625 C 21.40625 -24.632812 22.757812 -23.492188 23.78125 -21.984375 C 24.800781 -20.472656 25.378906 -18.695312 25.515625 -16.65625 L 18.59375 -16.65625 C 18.40625 -17.914062 17.941406 -18.925781 17.203125 -19.6875 C 16.472656 -20.457031 15.476562 -20.84375 14.21875 -20.84375 Z M 14.21875 -20.84375 "/></g></g></g><g fill="#055b49" fill-opacity="1"><g transform="translate(257.187194, 197.181182)"><g><path d="M 25.65625 -1.015625 L 25.65625 0 L 18.3125 0 C 17.914062 -1.132812 17.703125 -2.15625 17.671875 -3.0625 C 16.441406 -1.738281 15.160156 -0.78125 13.828125 -0.1875 C 12.492188 0.394531 10.984375 0.6875 9.296875 0.6875 C 6.929688 0.6875 5.023438 0.00390625 3.578125 -1.359375 C 2.128906 -2.722656 1.40625 -4.554688 1.40625 -6.859375 C 1.40625 -9.035156 2 -10.84375 3.1875 -12.28125 C 4.375 -13.726562 6.492188 -14.710938 9.546875 -15.234375 L 14.40625 -15.96875 C 15.644531 -16.164062 16.46875 -16.410156 16.875 -16.703125 C 17.28125 -16.992188 17.484375 -17.476562 17.484375 -18.15625 C 17.484375 -19.132812 17.132812 -19.875 16.4375 -20.375 C 15.738281 -20.875 14.59375 -21.125 13 -21.125 C 10.4375 -21.125 9.039062 -19.925781 8.8125 -17.53125 L 2.234375 -17.53125 C 2.492188 -20.476562 3.492188 -22.722656 5.234375 -24.265625 C 6.972656 -25.804688 9.769531 -26.578125 13.625 -26.578125 C 16.9375 -26.578125 19.519531 -25.925781 21.375 -24.625 C 23.226562 -23.332031 24.15625 -21.550781 24.15625 -19.28125 L 24.15625 -4.8125 C 24.15625 -3.613281 24.273438 -2.726562 24.515625 -2.15625 C 24.753906 -1.59375 25.132812 -1.210938 25.65625 -1.015625 Z M 17.484375 -9.390625 L 17.484375 -12.609375 C 16.898438 -12.253906 16.265625 -11.96875 15.578125 -11.75 C 14.898438 -11.539062 13.910156 -11.34375 12.609375 -11.15625 C 11.148438 -10.957031 10.054688 -10.554688 9.328125 -9.953125 C 8.597656 -9.359375 8.234375 -8.472656 8.234375 -7.296875 C 8.234375 -6.359375 8.523438 -5.601562 9.109375 -5.03125 C 9.691406 -4.46875 10.453125 -4.1875 11.390625 -4.1875 C 12.398438 -4.1875 13.375 -4.40625 14.3125 -4.84375 C 15.25 -5.28125 16.007812 -5.894531 16.59375 -6.6875 C 17.1875 -7.488281 17.484375 -8.390625 17.484375 -9.390625 Z M 17.484375 -9.390625 "/></g></g></g><g fill="#055b49" fill-opacity="1"><g transform="translate(282.500358, 197.181182)"><g><path d="M 18.15625 -26.484375 L 18.15625 -19.578125 C 17.632812 -19.640625 17.019531 -19.671875 16.3125 -19.671875 C 12.0625 -19.671875 9.9375 -17.65625 9.9375 -13.625 L 9.9375 0 L 3.109375 0 L 3.109375 -25.90625 L 9.640625 -25.90625 L 9.640625 -21.421875 L 9.734375 -21.421875 C 10.710938 -23.335938 11.753906 -24.675781 12.859375 -25.4375 C 13.960938 -26.195312 15.289062 -26.578125 16.84375 -26.578125 C 17.007812 -26.578125 17.445312 -26.546875 18.15625 -26.484375 Z M 18.15625 -26.484375 "/></g></g></g><g fill="#055b49" fill-opacity="1"><g transform="translate(299.684018, 197.181182)"><g><path d="M 14.015625 -4.765625 C 15.023438 -4.765625 15.941406 -5.007812 16.765625 -5.5 C 17.597656 -5.988281 18.144531 -6.6875 18.40625 -7.59375 L 25.421875 -7.59375 C 24.671875 -4.96875 23.285156 -2.929688 21.265625 -1.484375 C 19.253906 -0.0351562 16.835938 0.6875 14.015625 0.6875 C 9.734375 0.6875 6.515625 -0.492188 4.359375 -2.859375 C 2.203125 -5.234375 1.125 -8.757812 1.125 -13.4375 C 1.125 -16 1.601562 -18.269531 2.5625 -20.25 C 3.519531 -22.226562 4.921875 -23.773438 6.765625 -24.890625 C 8.617188 -26.015625 10.859375 -26.578125 13.484375 -26.578125 C 17.179688 -26.578125 20.140625 -25.390625 22.359375 -23.015625 C 24.585938 -20.648438 25.703125 -17.066406 25.703125 -12.265625 L 25.703125 -11.09375 L 7.9375 -11.09375 C 8.164062 -6.875 10.191406 -4.765625 14.015625 -4.765625 Z M 13.390625 -20.984375 C 10.273438 -20.984375 8.519531 -19.164062 8.125 -15.53125 L 18.703125 -15.53125 C 18.535156 -17.21875 17.976562 -18.546875 17.03125 -19.515625 C 16.09375 -20.492188 14.878906 -20.984375 13.390625 -20.984375 Z M 13.390625 -20.984375 "/></g></g></g><g clip-path="url(#b1420569d3)"><g clip-path="url(#68f22c1e8e)"><g clip-path="url(#3698f328e9)"><path fill="#86b649" d="M 224.257812 155.578125 C 224.152344 155.570312 224.050781 155.570312 223.949219 155.558594 C 223.183594 155.492188 222.421875 155.417969 221.652344 155.441406 C 221.207031 155.453125 220.761719 155.453125 220.316406 155.472656 C 220.054688 155.488281 219.789062 155.511719 219.53125 155.5625 C 218.824219 155.710938 218.128906 155.882812 217.445312 156.132812 C 216.691406 156.410156 215.964844 156.75 215.289062 157.183594 C 214.480469 157.707031 213.730469 158.308594 213.121094 159.070312 C 212.632812 159.679688 212.148438 160.289062 211.785156 160.984375 C 211.644531 161.257812 211.535156 161.546875 211.410156 161.832031 C 211.175781 162.378906 210.96875 162.933594 210.816406 163.515625 C 210.671875 164.070312 210.53125 164.625 210.449219 165.191406 C 210.367188 165.769531 210.261719 166.34375 210.207031 166.925781 C 210.171875 167.285156 210.15625 167.65625 210.226562 168.023438 C 210.308594 168.453125 210.300781 168.457031 210.019531 168.792969 C 210.003906 168.808594 209.988281 168.828125 209.972656 168.84375 C 209.59375 169.253906 209.363281 169.753906 209.085938 170.230469 C 209.066406 170.261719 209.089844 170.316406 209.09375 170.445312 C 209.523438 169.761719 209.875 169.132812 210.4375 168.589844 C 210.566406 168.792969 210.753906 168.835938 210.945312 168.890625 C 211.265625 168.984375 211.585938 169.050781 211.925781 169.019531 C 212.035156 169.011719 212.152344 169.035156 212.265625 169.042969 C 212.894531 169.0625 213.519531 169.128906 214.152344 169.09375 C 214.640625 169.066406 215.101562 168.9375 215.578125 168.875 C 216.171875 168.796875 216.734375 168.585938 217.285156 168.371094 C 217.5625 168.261719 217.824219 168.113281 218.078125 167.960938 C 218.363281 167.789062 218.632812 167.59375 218.90625 167.40625 C 219.609375 166.929688 220.253906 166.386719 220.816406 165.742188 C 221.128906 165.375 221.4375 165.007812 221.675781 164.585938 C 221.867188 164.246094 222.054688 163.90625 222.242188 163.5625 C 222.722656 162.675781 223.113281 161.746094 223.402344 160.777344 C 223.652344 159.957031 223.875 159.125 224.109375 158.300781 C 224.238281 157.835938 224.367188 157.375 224.484375 156.90625 C 224.554688 156.628906 224.609375 156.347656 224.652344 156.0625 C 224.691406 155.765625 224.550781 155.605469 224.257812 155.578125 Z M 224.257812 155.578125 " fill-opacity="1" fill-rule="nonzero"/></g></g></g><g fill="#80cc28" fill-opacity="1"><g transform="translate(110.422568, 344.414704)"><g><path d="M 4.582031 -9.378906 L 0.855469 -9.378906 L 0.855469 0 L 2.804688 0 L 2.804688 -3.265625 L 4.410156 -3.265625 C 6.664062 -3.265625 7.847656 -4.453125 7.847656 -6.359375 C 7.847656 -8.246094 6.613281 -9.378906 4.582031 -9.378906 Z M 2.804688 -4.914062 L 2.804688 -7.730469 L 4.4375 -7.730469 C 5.332031 -7.730469 5.964844 -7.257812 5.964844 -6.335938 C 5.964844 -5.4375 5.386719 -4.914062 4.242188 -4.914062 Z M 2.804688 -4.914062 "/></g></g></g><g fill="#80cc28" fill-opacity="1"><g transform="translate(121.993099, 344.414704)"><g><path d="M 6.402344 -4.503906 C 7.597656 -4.820312 8.191406 -5.597656 8.191406 -6.796875 C 8.191406 -8.125 7.46875 -9.378906 5.230469 -9.378906 L 0.855469 -9.378906 L 0.855469 0 L 2.804688 0 L 2.804688 -3.636719 L 4.53125 -3.636719 C 5.542969 -3.636719 5.875 -3.214844 5.953125 -2.410156 L 6.175781 0 L 8.179688 0 L 7.796875 -2.976562 C 7.71875 -3.59375 7.492188 -4.28125 6.402344 -4.503906 Z M 2.804688 -7.742188 L 4.9375 -7.742188 C 5.898438 -7.742188 6.28125 -7.21875 6.28125 -6.53125 C 6.28125 -5.808594 5.847656 -5.214844 4.675781 -5.214844 L 2.804688 -5.214844 Z M 2.804688 -7.742188 "/></g></g></g><g fill="#80cc28" fill-opacity="1"><g transform="translate(134.432042, 344.414704)"><g><path d="M 2.804688 -4.003906 L 7.191406 -4.003906 L 7.191406 -5.742188 L 2.804688 -5.742188 L 2.804688 -7.636719 L 7.679688 -7.636719 L 7.679688 -9.378906 L 0.855469 -9.378906 L 0.855469 0 L 7.808594 0 L 7.808594 -1.738281 L 2.804688 -1.738281 Z M 2.804688 -4.003906 "/></g></g></g><g fill="#80cc28" fill-opacity="1"><g transform="translate(146.292044, 344.414704)"><g><path d="M 4.820312 0.304688 C 7.097656 0.304688 8.625 -0.921875 8.785156 -3.070312 L 6.941406 -3.070312 C 6.796875 -2.171875 6.191406 -1.382812 4.9375 -1.382812 C 3.304688 -1.382812 2.410156 -2.714844 2.410156 -4.6875 C 2.410156 -6.597656 3.304688 -7.902344 4.9375 -7.902344 C 6.097656 -7.902344 6.78125 -7.257812 6.941406 -6.269531 L 8.796875 -6.269531 C 8.625 -8.324219 7.136719 -9.585938 4.847656 -9.585938 C 2.34375 -9.585938 0.460938 -7.71875 0.460938 -4.6875 C 0.460938 -1.644531 2.316406 0.304688 4.820312 0.304688 Z M 4.820312 0.304688 "/></g></g></g><g fill="#80cc28" fill-opacity="1"><g transform="translate(158.941508, 344.414704)"><g><path d="M 2.804688 0 L 2.804688 -9.378906 L 0.855469 -9.378906 L 0.855469 0 Z M 2.804688 0 "/></g></g></g><g fill="#80cc28" fill-opacity="1"><g transform="translate(166.130509, 344.414704)"><g><path d="M 4.492188 0.304688 C 6.808594 0.304688 8.21875 -0.828125 8.21875 -2.648438 C 8.21875 -4.214844 7.125 -4.992188 5.664062 -5.347656 L 3.792969 -5.808594 C 3.070312 -5.992188 2.699219 -6.347656 2.699219 -6.863281 C 2.699219 -7.492188 3.253906 -7.996094 4.253906 -7.996094 C 5.28125 -7.996094 6.046875 -7.453125 6.164062 -6.507812 L 8.058594 -6.507812 C 7.941406 -8.351562 6.507812 -9.585938 4.242188 -9.585938 C 1.832031 -9.585938 0.738281 -8.152344 0.738281 -6.652344 C 0.738281 -5.332031 1.582031 -4.410156 3.042969 -4.042969 L 4.765625 -3.609375 C 5.664062 -3.382812 6.203125 -3.132812 6.203125 -2.460938 C 6.203125 -1.726562 5.542969 -1.289062 4.476562 -1.289062 C 3.238281 -1.289062 2.476562 -1.871094 2.421875 -2.910156 L 0.511719 -2.910156 C 0.566406 -0.882812 2.105469 0.304688 4.492188 0.304688 Z M 4.492188 0.304688 "/></g></g></g><g fill="#80cc28" fill-opacity="1"><g transform="translate(178.385236, 344.414704)"><g><path d="M 2.804688 -4.003906 L 7.191406 -4.003906 L 7.191406 -5.742188 L 2.804688 -5.742188 L 2.804688 -7.636719 L 7.679688 -7.636719 L 7.679688 -9.378906 L 0.855469 -9.378906 L 0.855469 0 L 7.808594 0 L 7.808594 -1.738281 L 2.804688 -1.738281 Z M 2.804688 -4.003906 "/></g></g></g><g fill="#80cc28" fill-opacity="1"><g transform="translate(190.245237, 344.414704)"><g/></g></g><g fill="#80cc28" fill-opacity="1"><g transform="translate(197.065818, 344.414704)"><g><path d="M 7.480469 -9.378906 L 0.855469 -9.378906 L 0.855469 0 L 2.804688 0 L 2.804688 -3.886719 L 6.886719 -3.886719 L 6.886719 -5.625 L 2.804688 -5.625 L 2.804688 -7.636719 L 7.480469 -7.636719 Z M 7.480469 -9.378906 "/></g></g></g><g fill="#80cc28" fill-opacity="1"><g transform="translate(208.136358, 344.414704)"><g><path d="M 9.140625 0 L 5.898438 -9.378906 L 3.648438 -9.378906 L 0.328125 0 L 2.398438 0 L 3.027344 -1.949219 L 6.425781 -1.949219 L 7.058594 0 Z M 3.9375 -4.714844 L 4.742188 -7.414062 L 5.53125 -4.714844 L 5.914062 -3.554688 L 3.554688 -3.554688 Z M 3.9375 -4.714844 "/></g></g></g><g fill="#80cc28" fill-opacity="1"><g transform="translate(221.127926, 344.414704)"><g><path d="M 6.402344 -4.503906 C 7.597656 -4.820312 8.191406 -5.597656 8.191406 -6.796875 C 8.191406 -8.125 7.46875 -9.378906 5.230469 -9.378906 L 0.855469 -9.378906 L 0.855469 0 L 2.804688 0 L 2.804688 -3.636719 L 4.53125 -3.636719 C 5.542969 -3.636719 5.875 -3.214844 5.953125 -2.410156 L 6.175781 0 L 8.179688 0 L 7.796875 -2.976562 C 7.71875 -3.59375 7.492188 -4.28125 6.402344 -4.503906 Z M 2.804688 -7.742188 L 4.9375 -7.742188 C 5.898438 -7.742188 6.28125 -7.21875 6.28125 -6.53125 C 6.28125 -5.808594 5.847656 -5.214844 4.675781 -5.214844 L 2.804688 -5.214844 Z M 2.804688 -7.742188 "/></g></g></g><g fill="#80cc28" fill-opacity="1"><g transform="translate(233.566869, 344.414704)"><g><path d="M 5.859375 -3.871094 L 5.4375 -2 L 5.058594 -3.871094 L 3.59375 -9.378906 L 0.855469 -9.378906 L 0.855469 0 L 2.660156 0 L 2.660156 -3.515625 L 2.4375 -8.113281 L 3.082031 -5.359375 L 4.476562 0 L 6.464844 0 L 7.835938 -5.269531 L 8.480469 -8.097656 L 8.257812 -3.515625 L 8.257812 0 L 10.074219 0 L 10.074219 -9.378906 L 7.296875 -9.378906 Z M 5.859375 -3.871094 "/></g></g></g><g fill="#80cc28" fill-opacity="1"><g transform="translate(248.018942, 344.414704)"><g><path d="M 2.804688 0 L 2.804688 -9.378906 L 0.855469 -9.378906 L 0.855469 0 Z M 2.804688 0 "/></g></g></g><g fill="#80cc28" fill-opacity="1"><g transform="translate(255.207944, 344.414704)"><g><path d="M 6.480469 -5.269531 C 6.480469 -4.609375 6.492188 -3.9375 6.507812 -3.28125 C 6.203125 -3.804688 5.886719 -4.320312 5.558594 -4.847656 L 2.765625 -9.378906 L 0.855469 -9.378906 L 0.855469 0 L 2.804688 0 L 2.804688 -4.109375 C 2.804688 -4.753906 2.804688 -5.425781 2.792969 -6.085938 C 3.121094 -5.53125 3.449219 -4.976562 3.792969 -4.425781 L 6.519531 0 L 8.429688 0 L 8.429688 -9.378906 L 6.480469 -9.378906 Z M 6.480469 -5.269531 "/></g></g></g><g fill="#80cc28" fill-opacity="1"><g transform="translate(268.015295, 344.414704)"><g><path d="M 8.917969 -5.070312 L 5.003906 -5.070312 L 5.003906 -3.4375 L 7.230469 -3.4375 C 7.03125 -2.066406 6.097656 -1.382812 4.9375 -1.382812 C 3.320312 -1.382812 2.410156 -2.714844 2.410156 -4.6875 C 2.410156 -6.613281 3.304688 -7.914062 4.9375 -7.914062 C 6.085938 -7.914062 6.769531 -7.28125 6.941406 -6.296875 L 8.851562 -6.414062 C 8.535156 -8.390625 7.152344 -9.601562 4.832031 -9.601562 C 2.332031 -9.601562 0.460938 -7.730469 0.460938 -4.6875 C 0.460938 -1.644531 2.359375 0.304688 4.726562 0.304688 C 5.980469 0.304688 6.875 -0.25 7.347656 -1 L 7.652344 0 L 8.917969 0 Z M 8.917969 -5.070312 "/></g></g></g><g fill="#80cc28" fill-opacity="1"><g transform="translate(142.636651, 362.514924)"><g><path d="M 4.492188 0.304688 C 6.808594 0.304688 8.21875 -0.828125 8.21875 -2.648438 C 8.21875 -4.214844 7.125 -4.992188 5.664062 -5.347656 L 3.792969 -5.808594 C 3.070312 -5.992188 2.699219 -6.347656 2.699219 -6.863281 C 2.699219 -7.492188 3.253906 -7.996094 4.253906 -7.996094 C 5.28125 -7.996094 6.046875 -7.453125 6.164062 -6.507812 L 8.058594 -6.507812 C 7.941406 -8.351562 6.507812 -9.585938 4.242188 -9.585938 C 1.832031 -9.585938 0.738281 -8.152344 0.738281 -6.652344 C 0.738281 -5.332031 1.582031 -4.410156 3.042969 -4.042969 L 4.765625 -3.609375 C 5.664062 -3.382812 6.203125 -3.132812 6.203125 -2.460938 C 6.203125 -1.726562 5.542969 -1.289062 4.476562 -1.289062 C 3.238281 -1.289062 2.476562 -1.871094 2.421875 -2.910156 L 0.511719 -2.910156 C 0.566406 -0.882812 2.105469 0.304688 4.492188 0.304688 Z M 4.492188 0.304688 "/></g></g></g><g fill="#80cc28" fill-opacity="1"><g transform="translate(154.891377, 362.514924)"><g><path d="M 4.886719 0.304688 C 7.386719 0.304688 9.363281 -1.660156 9.363281 -4.703125 C 9.363281 -7.730469 7.386719 -9.601562 4.886719 -9.601562 C 2.382812 -9.601562 0.460938 -7.730469 0.460938 -4.703125 C 0.460938 -1.644531 2.382812 0.304688 4.886719 0.304688 Z M 4.886719 -1.382812 C 3.34375 -1.382812 2.410156 -2.714844 2.410156 -4.703125 C 2.410156 -6.613281 3.34375 -7.914062 4.886719 -7.914062 C 6.425781 -7.914062 7.414062 -6.625 7.414062 -4.703125 C 7.414062 -2.714844 6.425781 -1.382812 4.886719 -1.382812 Z M 4.886719 -1.382812 "/></g></g></g><g fill="#80cc28" fill-opacity="1"><g transform="translate(168.238201, 362.514924)"><g><path d="M 2.804688 -9.378906 L 0.855469 -9.378906 L 0.855469 0 L 7.375 0 L 7.375 -1.738281 L 2.804688 -1.738281 Z M 2.804688 -9.378906 "/></g></g></g><g fill="#80cc28" fill-opacity="1"><g transform="translate(179.335057, 362.514924)"><g><path d="M 4.492188 0.304688 C 6.78125 0.304688 8.140625 -0.828125 8.140625 -2.882812 L 8.140625 -9.378906 L 6.191406 -9.378906 L 6.191406 -2.859375 C 6.191406 -1.855469 5.648438 -1.382812 4.503906 -1.382812 C 3.359375 -1.382812 2.804688 -1.855469 2.804688 -2.859375 L 2.804688 -9.378906 L 0.855469 -9.378906 L 0.855469 -2.882812 C 0.855469 -0.828125 2.199219 0.304688 4.492188 0.304688 Z M 4.492188 0.304688 "/></g></g></g><g fill="#80cc28" fill-opacity="1"><g transform="translate(191.852938, 362.514924)"><g><path d="M 0.261719 -9.378906 L 0.261719 -7.636719 L 3.082031 -7.636719 L 3.082031 0 L 5.03125 0 L 5.03125 -7.636719 L 7.835938 -7.636719 L 7.835938 -9.378906 Z M 0.261719 -9.378906 "/></g></g></g><g fill="#80cc28" fill-opacity="1"><g transform="translate(203.476102, 362.514924)"><g><path d="M 2.804688 0 L 2.804688 -9.378906 L 0.855469 -9.378906 L 0.855469 0 Z M 2.804688 0 "/></g></g></g><g fill="#80cc28" fill-opacity="1"><g transform="translate(210.665104, 362.514924)"><g><path d="M 4.886719 0.304688 C 7.386719 0.304688 9.363281 -1.660156 9.363281 -4.703125 C 9.363281 -7.730469 7.386719 -9.601562 4.886719 -9.601562 C 2.382812 -9.601562 0.460938 -7.730469 0.460938 -4.703125 C 0.460938 -1.644531 2.382812 0.304688 4.886719 0.304688 Z M 4.886719 -1.382812 C 3.34375 -1.382812 2.410156 -2.714844 2.410156 -4.703125 C 2.410156 -6.613281 3.34375 -7.914062 4.886719 -7.914062 C 6.425781 -7.914062 7.414062 -6.625 7.414062 -4.703125 C 7.414062 -2.714844 6.425781 -1.382812 4.886719 -1.382812 Z M 4.886719 -1.382812 "/></g></g></g><g fill="#80cc28" fill-opacity="1"><g transform="translate(224.011928, 362.514924)"><g><path d="M 6.480469 -5.269531 C 6.480469 -4.609375 6.492188 -3.9375 6.507812 -3.28125 C 6.203125 -3.804688 5.886719 -4.320312 5.558594 -4.847656 L 2.765625 -9.378906 L 0.855469 -9.378906 L 0.855469 0 L 2.804688 0 L 2.804688 -4.109375 C 2.804688 -4.753906 2.804688 -5.425781 2.792969 -6.085938 C 3.121094 -5.53125 3.449219 -4.976562 3.792969 -4.425781 L 6.519531 0 L 8.429688 0 L 8.429688 -9.378906 L 6.480469 -9.378906 Z M 6.480469 -5.269531 "/></g></g></g><g fill="#80cc28" fill-opacity="1"><g transform="translate(236.819279, 362.514924)"><g><path d="M 4.492188 0.304688 C 6.808594 0.304688 8.21875 -0.828125 8.21875 -2.648438 C 8.21875 -4.214844 7.125 -4.992188 5.664062 -5.347656 L 3.792969 -5.808594 C 3.070312 -5.992188 2.699219 -6.347656 2.699219 -6.863281 C 2.699219 -7.492188 3.253906 -7.996094 4.253906 -7.996094 C 5.28125 -7.996094 6.046875 -7.453125 6.164062 -6.507812 L 8.058594 -6.507812 C 7.941406 -8.351562 6.507812 -9.585938 4.242188 -9.585938 C 1.832031 -9.585938 0.738281 -8.152344 0.738281 -6.652344 C 0.738281 -5.332031 1.582031 -4.410156 3.042969 -4.042969 L 4.765625 -3.609375 C 5.664062 -3.382812 6.203125 -3.132812 6.203125 -2.460938 C 6.203125 -1.726562 5.542969 -1.289062 4.476562 -1.289062 C 3.238281 -1.289062 2.476562 -1.871094 2.421875 -2.910156 L 0.511719 -2.910156 C 0.566406 -0.882812 2.105469 0.304688 4.492188 0.304688 Z M 4.492188 0.304688 "/></g></g></g></svg>