<svg xmlns="http://www.w3.org/2000/svg" xmlns:xlink="http://www.w3.org/1999/xlink" width="200" zoomAndPan="magnify" viewBox="0 0 150 37.5" height="50" preserveAspectRatio="xMidYMid meet" version="1.0"><defs><g/><clipPath id="a51101125e"><path d="M 63 0 L 73 0 L 73 10 L 63 10 Z M 63 0 " clip-rule="nonzero"/></clipPath><clipPath id="001cfef046"><path d="M 63.304688 0 L 72.925781 0.199219 L 72.726562 9.820312 L 63.105469 9.621094 Z M 63.304688 0 " clip-rule="nonzero"/></clipPath><clipPath id="c0410d4231"><path d="M 62.550781 -0.015625 L 72.910156 0.199219 L 72.699219 10.558594 L 62.335938 10.34375 Z M 62.550781 -0.015625 " clip-rule="nonzero"/></clipPath></defs><g fill="#055b49" fill-opacity="1"><g transform="translate(6.938798, 29.338444)"><g><path d="M 18.328125 0 L 16.765625 -5.03125 L 7.75 -5.03125 L 6.046875 0 L 0.6875 0 L 9.390625 -24.40625 L 15.265625 -24.40625 L 23.875 0 Z M 15.328125 -9.25 L 12.3125 -18.90625 L 12.234375 -18.90625 L 9.109375 -9.25 Z M 15.328125 -9.25 "/></g></g></g><g fill="#055b49" fill-opacity="1"><g transform="translate(30.260212, 29.338444)"><g><path d="M 14.171875 -15.40625 L 14.25 -15.40625 L 14.25 -18.09375 L 18.796875 -18.09375 L 18.796875 -0.265625 C 18.796875 2.535156 17.976562 4.507812 16.34375 5.65625 C 14.71875 6.800781 12.5 7.375 9.6875 7.375 C 7.425781 7.375 5.554688 6.878906 4.078125 5.890625 C 2.609375 4.910156 1.835938 3.59375 1.765625 1.9375 L 6.9375 1.9375 C 7.070312 2.613281 7.398438 3.085938 7.921875 3.359375 C 8.441406 3.640625 9.210938 3.78125 10.234375 3.78125 C 11.546875 3.78125 12.507812 3.457031 13.125 2.8125 C 13.738281 2.164062 14.046875 1.148438 14.046875 -0.234375 L 14.046875 -2.546875 L 13.96875 -2.625 C 13.363281 -1.625 12.691406 -0.914062 11.953125 -0.5 C 11.210938 -0.09375 10.273438 0.109375 9.140625 0.109375 C 7.578125 0.109375 6.207031 -0.265625 5.03125 -1.015625 C 3.851562 -1.765625 2.945312 -2.84375 2.3125 -4.25 C 1.675781 -5.65625 1.359375 -7.320312 1.359375 -9.25 C 1.359375 -11.15625 1.675781 -12.804688 2.3125 -14.203125 C 2.945312 -15.609375 3.828125 -16.6875 4.953125 -17.4375 C 6.085938 -18.1875 7.394531 -18.5625 8.875 -18.5625 C 10.144531 -18.5625 11.226562 -18.289062 12.125 -17.75 C 13.019531 -17.207031 13.703125 -16.425781 14.171875 -15.40625 Z M 10.03125 -3.90625 C 11.34375 -3.90625 12.34375 -4.359375 13.03125 -5.265625 C 13.726562 -6.171875 14.078125 -7.460938 14.078125 -9.140625 C 14.078125 -10.679688 13.703125 -11.953125 12.953125 -12.953125 C 12.203125 -13.953125 11.207031 -14.453125 9.96875 -14.453125 C 8.8125 -14.453125 7.898438 -13.960938 7.234375 -12.984375 C 6.578125 -12.015625 6.25 -10.675781 6.25 -8.96875 C 6.25 -7.40625 6.585938 -6.171875 7.265625 -5.265625 C 7.953125 -4.359375 8.875 -3.90625 10.03125 -3.90625 Z M 10.03125 -3.90625 "/></g></g></g><g fill="#055b49" fill-opacity="1"><g transform="translate(49.808008, 29.338444)"><g><path d="M 12.6875 -18.5 L 12.6875 -13.671875 C 12.320312 -13.710938 11.890625 -13.734375 11.390625 -13.734375 C 8.421875 -13.734375 6.9375 -12.328125 6.9375 -9.515625 L 6.9375 0 L 2.171875 0 L 2.171875 -18.09375 L 6.734375 -18.09375 L 6.734375 -14.953125 L 6.796875 -14.953125 C 7.472656 -16.296875 8.195312 -17.234375 8.96875 -17.765625 C 9.738281 -18.296875 10.671875 -18.5625 11.765625 -18.5625 C 11.878906 -18.5625 12.1875 -18.539062 12.6875 -18.5 Z M 12.6875 -18.5 "/></g></g></g><g fill="#055b49" fill-opacity="1"><g transform="translate(61.808585, 29.338444)"><g><path d="M 2.34375 -20.234375 L 2.34375 -24.65625 L 7.109375 -24.65625 L 7.109375 -20.234375 Z M 2.34375 0 L 2.34375 -18.09375 L 7.109375 -18.09375 L 7.109375 0 Z M 2.34375 0 "/></g></g></g><g fill="#055b49" fill-opacity="1"><g transform="translate(70.035552, 29.338444)"><g/></g></g><g fill="#055b49" fill-opacity="1"><g transform="translate(78.26252, 29.338444)"><g><path d="M 9.921875 -14.546875 C 8.660156 -14.546875 7.695312 -14.070312 7.03125 -13.125 C 6.375 -12.175781 6.046875 -10.816406 6.046875 -9.046875 C 6.046875 -6.984375 6.375 -5.53125 7.03125 -4.6875 C 7.695312 -3.851562 8.59375 -3.4375 9.71875 -3.4375 C 10.601562 -3.4375 11.335938 -3.734375 11.921875 -4.328125 C 12.515625 -4.929688 12.859375 -5.6875 12.953125 -6.59375 L 17.78125 -6.59375 C 17.488281 -4.507812 16.640625 -2.8125 15.234375 -1.5 C 13.828125 -0.1875 11.921875 0.46875 9.515625 0.46875 C 6.796875 0.46875 4.722656 -0.335938 3.296875 -1.953125 C 1.867188 -3.578125 1.15625 -5.769531 1.15625 -8.53125 C 1.15625 -11.769531 1.898438 -14.25 3.390625 -15.96875 C 4.890625 -17.695312 7.035156 -18.5625 9.828125 -18.5625 C 11.273438 -18.5625 12.585938 -18.289062 13.765625 -17.75 C 14.941406 -17.207031 15.890625 -16.40625 16.609375 -15.34375 C 17.328125 -14.289062 17.726562 -13.050781 17.8125 -11.625 L 12.984375 -11.625 C 12.847656 -12.507812 12.523438 -13.21875 12.015625 -13.75 C 11.503906 -14.28125 10.804688 -14.546875 9.921875 -14.546875 Z M 9.921875 -14.546875 "/></g></g></g><g fill="#055b49" fill-opacity="1"><g transform="translate(95.94051, 29.338444)"><g><path d="M 17.921875 -0.71875 L 17.921875 0 L 12.78125 0 C 12.507812 -0.789062 12.363281 -1.503906 12.34375 -2.140625 C 11.476562 -1.210938 10.582031 -0.546875 9.65625 -0.140625 C 8.726562 0.265625 7.675781 0.46875 6.5 0.46875 C 4.84375 0.46875 3.507812 -0.00390625 2.5 -0.953125 C 1.488281 -1.898438 0.984375 -3.179688 0.984375 -4.796875 C 0.984375 -6.316406 1.394531 -7.578125 2.21875 -8.578125 C 3.050781 -9.585938 4.53125 -10.273438 6.65625 -10.640625 L 10.0625 -11.15625 C 10.925781 -11.289062 11.5 -11.457031 11.78125 -11.65625 C 12.0625 -11.863281 12.203125 -12.207031 12.203125 -12.6875 C 12.203125 -13.363281 11.957031 -13.875 11.46875 -14.21875 C 10.988281 -14.570312 10.191406 -14.75 9.078125 -14.75 C 7.285156 -14.75 6.3125 -13.910156 6.15625 -12.234375 L 1.5625 -12.234375 C 1.75 -14.296875 2.445312 -15.863281 3.65625 -16.9375 C 4.863281 -18.019531 6.816406 -18.5625 9.515625 -18.5625 C 11.828125 -18.5625 13.628906 -18.109375 14.921875 -17.203125 C 16.210938 -16.296875 16.859375 -15.050781 16.859375 -13.46875 L 16.859375 -3.359375 C 16.859375 -2.523438 16.941406 -1.910156 17.109375 -1.515625 C 17.285156 -1.117188 17.554688 -0.851562 17.921875 -0.71875 Z M 12.203125 -6.5625 L 12.203125 -8.8125 C 11.796875 -8.5625 11.351562 -8.359375 10.875 -8.203125 C 10.40625 -8.054688 9.71875 -7.914062 8.8125 -7.78125 C 7.789062 -7.644531 7.023438 -7.367188 6.515625 -6.953125 C 6.003906 -6.535156 5.75 -5.914062 5.75 -5.09375 C 5.75 -4.4375 5.953125 -3.910156 6.359375 -3.515625 C 6.765625 -3.117188 7.296875 -2.921875 7.953125 -2.921875 C 8.660156 -2.921875 9.34375 -3.070312 10 -3.375 C 10.65625 -3.6875 11.1875 -4.117188 11.59375 -4.671875 C 12 -5.234375 12.203125 -5.863281 12.203125 -6.5625 Z M 12.203125 -6.5625 "/></g></g></g><g fill="#055b49" fill-opacity="1"><g transform="translate(113.618501, 29.338444)"><g><path d="M 12.6875 -18.5 L 12.6875 -13.671875 C 12.320312 -13.710938 11.890625 -13.734375 11.390625 -13.734375 C 8.421875 -13.734375 6.9375 -12.328125 6.9375 -9.515625 L 6.9375 0 L 2.171875 0 L 2.171875 -18.09375 L 6.734375 -18.09375 L 6.734375 -14.953125 L 6.796875 -14.953125 C 7.472656 -16.296875 8.195312 -17.234375 8.96875 -17.765625 C 9.738281 -18.296875 10.671875 -18.5625 11.765625 -18.5625 C 11.878906 -18.5625 12.1875 -18.539062 12.6875 -18.5 Z M 12.6875 -18.5 "/></g></g></g><g fill="#055b49" fill-opacity="1"><g transform="translate(125.619078, 29.338444)"><g><path d="M 9.796875 -3.328125 C 10.492188 -3.328125 11.128906 -3.5 11.703125 -3.84375 C 12.285156 -4.1875 12.671875 -4.671875 12.859375 -5.296875 L 17.75 -5.296875 C 17.226562 -3.460938 16.265625 -2.039062 14.859375 -1.03125 C 13.453125 -0.03125 11.765625 0.46875 9.796875 0.46875 C 6.796875 0.46875 4.539062 -0.351562 3.03125 -2 C 1.53125 -3.65625 0.78125 -6.117188 0.78125 -9.390625 C 0.78125 -11.171875 1.113281 -12.753906 1.78125 -14.140625 C 2.445312 -15.523438 3.425781 -16.609375 4.71875 -17.390625 C 6.007812 -18.171875 7.578125 -18.5625 9.421875 -18.5625 C 12.003906 -18.5625 14.070312 -17.734375 15.625 -16.078125 C 17.175781 -14.421875 17.953125 -11.914062 17.953125 -8.5625 L 17.953125 -7.75 L 5.546875 -7.75 C 5.703125 -4.800781 7.117188 -3.328125 9.796875 -3.328125 Z M 9.34375 -14.65625 C 7.175781 -14.65625 5.953125 -13.382812 5.671875 -10.84375 L 13.0625 -10.84375 C 12.945312 -12.019531 12.554688 -12.945312 11.890625 -13.625 C 11.234375 -14.3125 10.382812 -14.65625 9.34375 -14.65625 Z M 9.34375 -14.65625 "/></g></g></g><g clip-path="url(#a51101125e)"><g clip-path="url(#001cfef046)"><g clip-path="url(#c0410d4231)"><path fill="#86b649" d="M 72.933594 0.285156 C 72.863281 0.277344 72.789062 0.277344 72.71875 0.269531 C 72.1875 0.226562 71.65625 0.171875 71.117188 0.1875 C 70.808594 0.195312 70.496094 0.195312 70.183594 0.210938 C 70 0.21875 69.816406 0.238281 69.636719 0.273438 C 69.144531 0.375 68.660156 0.496094 68.183594 0.671875 C 67.65625 0.863281 67.148438 1.101562 66.679688 1.40625 C 66.113281 1.769531 65.589844 2.1875 65.164062 2.71875 C 64.824219 3.144531 64.488281 3.570312 64.234375 4.054688 C 64.136719 4.246094 64.058594 4.449219 63.972656 4.644531 C 63.808594 5.027344 63.664062 5.417969 63.558594 5.820312 C 63.457031 6.207031 63.359375 6.59375 63.300781 6.992188 C 63.246094 7.394531 63.171875 7.796875 63.132812 8.199219 C 63.109375 8.453125 63.097656 8.710938 63.148438 8.964844 C 63.203125 9.265625 63.199219 9.269531 63 9.503906 C 62.988281 9.515625 62.980469 9.527344 62.96875 9.539062 C 62.707031 9.824219 62.542969 10.175781 62.351562 10.507812 C 62.335938 10.527344 62.351562 10.566406 62.355469 10.65625 C 62.65625 10.179688 62.902344 9.742188 63.292969 9.359375 C 63.382812 9.503906 63.515625 9.535156 63.648438 9.574219 C 63.871094 9.636719 64.09375 9.683594 64.332031 9.664062 C 64.410156 9.65625 64.488281 9.675781 64.570312 9.675781 C 65.007812 9.691406 65.445312 9.738281 65.886719 9.714844 C 66.226562 9.695312 66.546875 9.605469 66.878906 9.5625 C 67.296875 9.503906 67.683594 9.359375 68.070312 9.207031 C 68.265625 9.132812 68.445312 9.03125 68.625 8.921875 C 68.824219 8.804688 69.011719 8.667969 69.203125 8.535156 C 69.691406 8.203125 70.144531 7.824219 70.535156 7.375 C 70.753906 7.121094 70.96875 6.863281 71.132812 6.570312 C 71.269531 6.332031 71.398438 6.09375 71.527344 5.855469 C 71.867188 5.234375 72.136719 4.585938 72.339844 3.914062 C 72.511719 3.339844 72.667969 2.757812 72.832031 2.183594 C 72.921875 1.859375 73.011719 1.535156 73.09375 1.210938 C 73.144531 1.015625 73.183594 0.820312 73.210938 0.621094 C 73.238281 0.414062 73.140625 0.304688 72.933594 0.285156 Z M 72.933594 0.285156 " fill-opacity="1" fill-rule="nonzero"/></g></g></g></svg>